<?xml version="1.0" standalone="no"?>
<!DOCTYPE svg PUBLIC "-//W3C//DTD SVG 20010904//EN"
 "http://www.w3.org/TR/2001/REC-SVG-20010904/DTD/svg10.dtd">
<svg version="1.0" xmlns="http://www.w3.org/2000/svg"
 width="640.000000pt" height="360.000000pt" viewBox="0 0 640.000000 360.000000"
 preserveAspectRatio="xMidYMid meet">

<g transform="translate(0.000000,360.000000) scale(0.100000,-0.100000)"
fill="#E6503D" stroke="none">
<path fill="#E6503D"  d="M1440 2274 c-109 -21 -250 -75 -250 -96 0 -4 -6 -8 -13 -8 -16 0 -54
-41 -89 -96 -81 -126 -88 -366 -16 -512 50 -101 147 -170 293 -209 100 -26
403 -26 490 0 192 58 294 163 326 333 6 33 9 104 6 159 -12 228 -109 349 -332
411 -59 16 -355 29 -415 18z m361 -213 c102 -38 148 -107 156 -231 7 -93 -12
-161 -63 -221 -19 -22 -34 -38 -34 -35 0 4 -10 0 -23 -8 -64 -43 -258 -58
-375 -31 -147 35 -207 116 -206 280 1 151 61 227 206 260 91 21 265 13 339
-14z"/>
<path fill="#E6503D"  d="M2523 2260 c-93 -19 -177 -81 -218 -161 -85 -165 -29 -385 118 -460
20 -11 37 -23 37 -28 0 -5 -33 -63 -73 -128 -40 -65 -77 -124 -81 -130 -6 -10
23 -13 131 -13 l138 1 74 124 75 125 198 0 198 0 0 -125 0 -125 115 0 115 0 0
465 0 465 -392 -1 c-216 -1 -412 -5 -435 -9z m592 -330 l0 -145 -250 0 c-185
0 -260 4 -288 14 -52 18 -77 60 -77 131 0 89 28 121 125 143 11 3 126 4 255 3
l235 -1 0 -145z"/>
<path fill="#E6503D"  d="M3470 1822 c0 -247 2 -457 6 -466 6 -14 49 -16 455 -16 278 0 467 4
498 11 76 16 136 59 167 121 23 44 27 66 28 133 0 94 -22 147 -86 206 l-39 37
33 52 c30 49 33 60 33 134 0 106 -30 162 -108 204 l-52 27 -467 3 -467 3 -1
-449z m830 268 c44 -24 50 -129 9 -166 -19 -18 -43 -19 -310 -22 l-289 -3 0
101 0 100 286 0 c169 0 293 -4 304 -10z m67 -389 c40 -37 38 -117 -4 -163 -15
-16 -44 -18 -335 -18 l-318 0 0 100 0 100 318 0 c300 0 319 -1 339 -19z"/>
<path  fill="#E6503D" d="M4755 2258 c-3 -7 -4 -215 -3 -463 l3 -450 113 -3 112 -3 0 466 0
465 -110 0 c-79 0 -112 -4 -115 -12z"/>
<path  fill="#2C1B63"  d="M5164 1591 c-52 -32 -74 -68 -74 -123 0 -118 99 -186 204 -140 57 26
86 70 86 132 0 113 -123 188 -216 131z"/>
</g>
</svg>
