<svg width="621" height="178" viewBox="0 0 621 178" fill="none" xmlns="http://www.w3.org/2000/svg">
<path d="M71.2715 0V57.9529H30.3939C29.1605 57.9529 28.1033 58.9188 28.1033 60.2359V85.6122C28.1033 86.8415 29.1605 87.8952 30.3939 87.8952H71.2715V110.374H0V38.9865C0 36.7913 1.23337 34.8595 3.17154 33.8937L71.2715 0Z" fill="#002759"/>
<path d="M150.032 38.9865V104.491C150.032 107.652 147.478 110.198 144.306 110.198H78.761V87.8074H119.639C120.872 87.8074 121.929 86.8415 121.929 85.5244V60.2359C121.929 59.0066 120.96 57.9529 119.639 57.9529H78.761V0L146.861 33.8937C148.623 34.7717 150.032 37.0547 150.032 38.9865Z" fill="#002759"/>
<path d="M71.2715 110.286H0L61.4044 174.649C66.8665 180.356 71.2715 178.6 71.2715 170.698V110.286Z" fill="#002759"/>
<path d="M236.874 147.78C236.874 152.258 233.526 155.068 228.064 155.068H224.012V160.6H219.343V140.492H228.064C233.526 140.492 236.874 143.302 236.874 147.78ZM232.205 147.78C232.205 145.585 230.795 144.268 227.888 144.268H224.1V151.292H227.888C230.707 151.292 232.205 149.975 232.205 147.78Z" fill="#002759"/>
<path d="M241.72 140.492H246.389V156.824H256.52V160.6H241.72V140.492Z" fill="#002759"/>
<path d="M274.049 156.297H264.71L262.948 160.6H258.191L267.177 140.492H271.758L280.744 160.688H275.811L274.049 156.297ZM272.551 152.785L269.379 145.058L266.208 152.785H272.551Z" fill="#002759"/>
<path d="M282.773 150.59C282.773 144.531 287.442 140.141 293.697 140.141C297.221 140.141 300.128 141.37 301.978 143.741L298.983 146.463C297.662 144.882 295.9 144.092 293.873 144.092C290.085 144.092 287.442 146.726 287.442 150.502C287.442 154.278 290.085 156.912 293.873 156.912C295.9 156.912 297.573 156.122 298.983 154.541L301.978 157.263C300.04 159.634 297.133 160.863 293.609 160.863C287.442 161.039 282.773 156.648 282.773 150.59Z" fill="#002759"/>
<path d="M319.511 156.297H310.173L308.411 160.6H303.653L312.639 140.492H317.22L326.295 160.6H321.361L319.511 156.297ZM318.101 152.785L314.93 145.058L311.758 152.785H318.101Z" fill="#002759"/>
<path d="M328.231 158.668L329.817 155.156C331.491 156.385 334.045 157.263 336.512 157.263C339.243 157.263 340.389 156.385 340.389 155.068C340.389 151.292 328.671 153.926 328.671 146.375C328.671 142.95 331.403 140.141 337.217 140.141C339.772 140.141 342.327 140.755 344.265 141.897L342.855 145.409C341.005 144.355 339.067 143.829 337.217 143.829C334.486 143.829 333.341 144.882 333.341 146.112C333.341 149.799 345.058 147.253 345.058 154.629C345.058 157.966 342.239 160.863 336.512 160.863C333.253 161.039 329.993 160.073 328.231 158.668Z" fill="#002759"/>
<path d="M376.772 147.78C376.772 152.258 373.424 155.068 367.962 155.068H363.909V160.6H359.24V140.492H367.962C373.424 140.492 376.772 143.302 376.772 147.78ZM372.103 147.78C372.103 145.585 370.693 144.268 367.786 144.268H363.998V151.292H367.786C370.605 151.292 372.103 149.975 372.103 147.78Z" fill="#002759"/>
<path d="M393.867 156.297H384.529L382.767 160.6H378.01L386.996 140.492H391.577L400.563 160.688H395.629L393.867 156.297ZM392.37 152.785L389.198 145.058L386.026 152.785H392.37Z" fill="#002759"/>
<path d="M417.03 160.688L413.153 155.068H412.889H408.837V160.688H404.079V140.492H412.801C418.175 140.492 421.611 143.302 421.611 147.78C421.611 150.765 420.113 153.048 417.47 154.102L421.963 160.6H417.03V160.688ZM412.625 144.268H408.837V151.292H412.625C415.444 151.292 416.942 149.975 416.942 147.78C416.942 145.585 415.444 144.268 412.625 144.268Z" fill="#002759"/>
<path d="M440.118 156.297H430.78L429.018 160.6H424.26L433.158 140.492H437.74L446.814 160.6H441.88L440.118 156.297ZM438.621 152.785L435.449 145.058L432.277 152.785H438.621Z" fill="#002759"/>
<path d="M479.41 140.492L470.688 160.6H466.107L457.385 140.492H462.407L468.574 154.892L474.829 140.492H479.41Z" fill="#002759"/>
<path d="M498.174 156.912V160.688H482.493V140.492H497.734V144.268H487.074V148.658H496.589V152.258H487.25V156.912H498.174V156.912Z" fill="#002759"/>
<path d="M506.983 134.697H511.829L506.631 138.824H503.107L506.983 134.697ZM503.371 140.492H508.041V160.688H503.371V140.492Z" fill="#002759"/>
<path d="M512.972 150.59C512.972 144.531 517.641 140.141 523.896 140.141C527.42 140.141 530.328 141.37 532.178 143.741L529.182 146.463C527.861 144.882 526.099 144.092 524.073 144.092C520.284 144.092 517.641 146.726 517.641 150.502C517.641 154.278 520.284 156.912 524.073 156.912C526.099 156.912 527.773 156.122 529.182 154.541L532.178 157.263C530.239 159.634 527.332 160.863 523.808 160.863C517.641 161.039 512.972 156.648 512.972 150.59Z" fill="#002759"/>
<path d="M536.494 151.819V140.492H541.163V151.556C541.163 155.419 542.837 157 545.656 157C548.476 157 550.149 155.419 550.149 151.556V140.492H554.73V151.731C554.73 157.702 551.295 160.951 545.568 160.951C539.93 161.039 536.494 157.702 536.494 151.819Z" fill="#002759"/>
<path d="M560.898 140.492H565.567V156.824H575.698V160.6H560.898V140.492Z" fill="#002759"/>
<path d="M578.166 150.59C578.166 144.619 582.835 140.141 589.178 140.141C595.521 140.141 600.191 144.531 600.191 150.59C600.191 156.648 595.521 161.039 589.178 161.039C582.835 161.039 578.166 156.561 578.166 150.59ZM595.521 150.59C595.521 146.726 592.79 144.18 589.178 144.18C585.566 144.18 582.835 146.814 582.835 150.59C582.835 154.365 585.566 157 589.178 157C592.79 157 595.521 154.365 595.521 150.59Z" fill="#002759"/>
<path d="M603.715 158.668L605.3 155.156C606.974 156.385 609.529 157.263 611.996 157.263C614.727 157.263 615.872 156.385 615.872 155.068C615.872 151.292 604.155 153.926 604.155 146.375C604.155 142.95 606.886 140.141 612.701 140.141C615.255 140.141 617.81 140.755 619.748 141.897L618.339 145.409C616.489 144.355 614.551 143.829 612.701 143.829C609.97 143.829 608.824 144.882 608.824 146.112C608.824 149.799 620.541 147.253 620.541 154.629C620.541 157.966 617.722 160.863 611.996 160.863C608.736 161.039 605.477 160.073 603.715 158.668Z" fill="#002759"/>
<path d="M309.732 43.3769H291.407C287.355 43.3769 284.271 42.4988 282.333 40.8304C280.395 39.1621 279.426 36.3523 279.426 32.5765C279.426 28.8008 280.395 25.991 282.333 24.3226C284.271 22.6543 287.355 21.7762 291.407 21.7762H309.203V14.3126L290.879 14.2248C290.79 14.2248 290.702 14.2248 290.614 14.2248C284.095 14.2248 278.985 15.8053 275.461 18.8786C271.849 22.0397 270.087 26.6056 270.087 32.6644C270.087 38.7231 271.937 43.3769 275.461 46.4501C278.985 49.5234 284.183 51.1039 290.79 51.1039H309.643V43.3769H309.732Z" fill="#002759"/>
<path d="M341.974 14.4004H329.023L312.637 50.7527H322.592L325.94 43.3768H345.234L348.581 50.7527H358.536L341.974 14.4004ZM341.71 35.6498H329.288L335.543 21.864L341.71 35.6498Z" fill="#002759"/>
<path d="M373.424 36.0888H391.044C392.365 36.0888 393.334 36.3522 393.951 36.9669C394.568 37.4937 394.92 38.4596 394.92 39.7767C394.92 41.0939 394.568 42.0597 393.951 42.5866C393.334 43.2012 392.277 43.4647 391.044 43.4647L362.059 43.3768V50.9283H391.837C395.625 50.9283 398.62 49.9624 400.735 48.0306C402.849 46.0989 403.994 43.289 403.994 39.6889C403.994 36.001 402.937 33.1912 400.735 31.2594C398.62 29.4155 395.625 28.4496 391.837 28.4496H374.217C372.984 28.4496 372.015 28.1862 371.31 27.6593C370.693 27.1325 370.341 26.2544 370.341 25.0251C370.341 23.7958 370.693 22.9177 371.31 22.3909C372.015 21.864 372.984 21.6006 374.217 21.6006L401.704 21.6884V14.0492H373.424C369.636 14.0492 366.641 15.015 364.526 16.859C362.412 18.703 361.267 21.5128 361.267 25.0251C361.267 28.5374 362.324 31.3472 364.526 33.1912C366.641 35.1229 369.636 36.0888 373.424 36.0888Z" fill="#002759"/>
<path d="M442.849 50.7527H452.804L436.418 14.4004H423.467L407.081 50.7527H417.036L420.384 43.3768H439.677L442.849 50.7527ZM436.065 35.6498H423.643L429.898 21.864L436.065 35.6498Z" fill="#002759"/>
<path d="M514.736 46.0989C518.348 43.0256 520.199 38.4596 520.199 32.4887C520.199 26.5178 518.348 21.9518 514.736 18.8786C511.124 15.8053 506.015 14.2248 499.495 14.2248L477.295 14.3126V50.6649H499.495C506.015 50.7527 511.124 49.1722 514.736 46.0989ZM486.457 43.1134V21.9518H498.967C502.931 21.9518 506.015 22.8299 507.953 24.4983C509.979 26.1666 510.948 28.8886 510.948 32.5765C510.948 36.2645 509.979 38.8987 507.953 40.567C505.927 42.2354 502.931 43.1134 498.967 43.1134H486.457V43.1134Z" fill="#002759"/>
<path d="M566.269 43.1134H535.523V36.0888H563.362V28.5374H535.523V21.9518H566.269V14.4004H526.361V50.7527H566.269V43.1134Z" fill="#002759"/>
<path d="M264.272 70.5093H219.342V124.423H232.381V105.018H264.184C269.823 105.018 274.227 103.613 277.311 100.715C280.482 97.8174 282.068 93.5149 282.068 87.7196C282.068 82.0121 280.482 77.6217 277.311 74.7241C274.316 71.9143 269.911 70.5093 264.272 70.5093ZM232.469 81.3096H262.863C264.889 81.3096 266.387 81.7487 267.444 82.7146C268.501 83.6804 268.942 85.3488 268.942 87.7196C268.942 90.0904 268.413 91.7587 267.444 92.7246C266.387 93.6905 264.889 94.2173 262.863 94.2173L232.469 94.1295V81.3096Z" fill="#002759"/>
<path d="M305.15 70.5093H292.024V124.423H343.825V113.623H305.15V70.5093Z" fill="#002759"/>
<path d="M373.253 70.5093L348.938 124.423H363.121L368.143 113.272H397.392L402.413 124.423H416.597L392.282 70.5093H373.253V70.5093ZM382.855 80.9584L392.546 102.471H372.9L382.591 80.9584H382.855Z" fill="#002759"/>
<path d="M437.999 110.023C435.004 107.388 433.506 103.174 433.506 97.3784C433.506 91.5831 435.004 87.3683 437.911 84.8219C440.907 82.1877 445.576 80.8706 451.743 80.8706H478.172V70.2459L450.95 70.0703C450.862 70.0703 450.774 70.0703 450.686 70.0703C440.995 70.0703 433.418 72.3533 428.221 76.9193C422.935 81.5731 420.292 88.422 420.292 97.3784C420.292 106.335 422.935 113.272 428.221 117.838C433.506 122.404 441.171 124.686 451.038 124.686H478.965V113.886H451.831C445.576 113.974 440.995 112.657 437.999 110.023Z" fill="#002759"/>
<path d="M508.482 70.5093L484.167 124.423H498.351L503.373 113.272H532.621L537.643 124.423H551.827L527.512 70.5093H508.482V70.5093ZM518.085 80.9584L527.776 102.471H508.13L517.821 80.9584H518.085Z" fill="#002759"/>
<path d="M615.699 95.8857C612.528 93.1637 608.123 91.7587 602.573 91.7587H576.143C574.205 91.7587 572.619 91.3197 571.562 90.4416C570.505 89.5636 569.976 88.2464 569.976 86.3147C569.976 84.3829 570.505 83.0658 571.562 82.1877C572.619 81.3097 574.117 80.8706 576.143 80.8706L617.021 80.9584V70.1581H574.822C569.183 70.1581 564.779 71.563 561.695 74.2851C558.524 77.0071 556.938 81.0462 556.938 86.4025C556.938 91.6709 558.524 95.7101 561.695 98.4321C564.779 101.154 569.271 102.559 574.822 102.559H601.251C603.277 102.559 604.775 102.998 605.832 103.964C606.801 104.842 607.33 106.335 607.33 108.442C607.33 110.55 606.801 111.954 605.832 112.833C604.775 113.711 603.277 114.237 601.251 114.237L558.171 114.15V124.95H602.573C608.211 124.95 612.616 123.545 615.699 120.735C618.871 117.925 620.457 113.798 620.457 108.442C620.457 102.822 618.871 98.6955 615.699 95.8857Z" fill="#002759"/>
</svg>
